<?xml version="1.0" standalone="no"?><!DOCTYPE svg PUBLIC "-//W3C//DTD SVG 1.1//EN" "http://www.w3.org/Graphics/SVG/1.1/DTD/svg11.dtd"><svg t="1563103354667" class="icon" viewBox="0 0 1024 1024" version="1.1" xmlns="http://www.w3.org/2000/svg" p-id="2075" xmlns:xlink="http://www.w3.org/1999/xlink" width="200" height="200"><defs><style type="text/css"></style></defs><path d="M832 512v384a64 64 0 0 1-64 64H256a64 64 0 0 1-64-64V512H77.248a32 32 0 0 1-22.592-54.656L466.752 45.248a64 64 0 0 1 90.496 0l412.16 412.16a32 32 0 0 1-22.656 54.592H832z m-256 320h128V384L512 192 320 384v448h128v-192h128v192z" fill="#333333" p-id="2076"></path></svg>