<?xml version="1.0" standalone="no"?><!DOCTYPE svg PUBLIC "-//W3C//DTD SVG 1.1//EN" "http://www.w3.org/Graphics/SVG/1.1/DTD/svg11.dtd"><svg t="1557194322135" class="icon" style="" viewBox="0 0 1025 1024" version="1.1" xmlns="http://www.w3.org/2000/svg" p-id="3508" xmlns:xlink="http://www.w3.org/1999/xlink" width="200.1953125" height="200"><defs><style type="text/css"></style></defs><path d="M1003.971765 1003.941647C990.72 1017.193412 973.342118 1023.819294 955.994353 1023.819294 938.616471 1023.819294 921.238588 1017.193412 907.986824 1003.941647L674.816 770.710588C602.804706 822.934588 516.698353 851.516235 426.044235 851.516235 426.014118 851.516235 425.984 851.516235 425.953882 851.516235 191.307294 851.516235 0.331294 660.540235 0.271059 425.773176L0.271059 425.743059C0.331294 191.036235 191.277176 0.060235 425.923765 0.030118 539.648 0.030118 646.535529 44.333176 726.919529 124.747294 807.303529 205.161412 851.576471 312.048941 851.546353 425.743059 851.576471 516.457412 822.994824 602.624 770.800941 674.695529L1003.971765 907.926588C1030.475294 934.430118 1030.475294 977.408 1003.971765 1003.941647ZM648.372706 203.324235C588.950588 143.902118 509.952 111.164235 425.923765 111.164235 252.536471 111.194353 111.435294 252.325647 111.375059 425.773176 111.435294 599.250824 252.566588 740.382118 425.984 740.382118 425.984 740.382118 426.014118 740.382118 426.014118 740.382118 502.211765 740.382118 574.102588 713.216 631.145412 663.883294 634.398118 656.835765 638.704941 650.179765 644.487529 644.367059 650.300235 638.584471 656.956235 634.307765 663.973647 631.024941 713.306353 573.921882 740.472471 502.000941 740.442353 425.743059 740.472471 341.714824 707.764706 262.746353 648.372706 203.324235Z" p-id="3509"></path></svg>